<svg width="58" height="58" viewBox="0 0 58 58" fill="none" xmlns="http://www.w3.org/2000/svg">
<path d="M29.0007 0.874084C23.3804 0.874084 17.8863 2.54069 13.2132 5.66316C8.54011 8.78562 4.89788 13.2237 2.74709 18.4162C0.596297 23.6086 0.0335521 29.3223 1.13002 34.8346C2.22648 40.3469 4.9329 45.4102 8.90705 49.3844C12.8812 53.3585 17.9446 56.0649 23.4568 57.1614C28.9691 58.2579 34.6828 57.6951 39.8753 55.5443C45.0677 53.3935 49.5058 49.7513 52.6283 45.0782C55.7507 40.4051 57.4173 34.911 57.4173 29.2908C57.4173 21.7542 54.4234 14.5263 49.0943 9.19713C43.7651 3.86798 36.5372 0.874084 29.0007 0.874084ZM43.7437 23.3672L25.6604 41.4505C25.176 41.9348 24.519 42.2069 23.834 42.2069C23.149 42.2069 22.492 41.9348 22.0076 41.4505L14.2576 33.7005C13.787 33.2133 13.5266 32.5607 13.5325 31.8834C13.5384 31.206 13.8101 30.5581 14.289 30.0791C14.768 29.6002 15.416 29.3285 16.0933 29.3226C16.7706 29.3167 17.4232 29.5771 17.9104 30.0477L23.834 35.9713L40.0909 19.7143C40.5781 19.2438 41.2307 18.9834 41.908 18.9893C42.5854 18.9951 43.2333 19.2668 43.7123 19.7458C44.1912 20.2248 44.4629 20.8727 44.4688 21.55C44.4747 22.2274 44.2143 22.8799 43.7437 23.3672Z" fill="#66CE7E"/>
</svg>
