<svg width="32" height="25" viewBox="0 0 32 25" fill="none" xmlns="http://www.w3.org/2000/svg">
<path d="M31.6211 5.26756L30.3536 4L18.6121 15.7415C17.1444 17.2092 14.676 17.2092 13.2083 15.7415L1.46677 4.06672L0.199219 5.33426L8.93864 14.0737L0.199219 22.8131L1.46677 24.0807L10.2062 15.3412L11.9407 17.0758C13.0081 18.1432 14.4091 18.7436 15.8768 18.7436C17.3445 18.7436 18.7455 18.1432 19.8129 17.0758L21.5474 15.3412L30.2869 24.0807L31.5544 22.8131L22.815 14.0737L31.6211 5.26756Z" fill="black"/>
<path d="M29.1537 24.417H2.80196C1.26755 24.417 0 23.1495 0 21.6151V2.80195C0 1.26755 1.26755 0 2.80196 0H29.1537C30.6881 0 31.9556 1.26755 31.9556 2.80195V21.6151C31.9556 23.1495 30.6881 24.417 29.1537 24.417ZM2.73524 1.80125C2.20153 1.80125 1.80126 2.20153 1.80126 2.73523V21.5484C1.80126 22.0821 2.20153 22.4823 2.73524 22.4823H29.0869C29.6207 22.4823 30.0209 22.0821 30.0209 21.5484V2.73523C30.0209 2.20153 29.6207 1.80125 29.0869 1.80125H2.73524Z" fill="black"/>
</svg>
