<svg width="36" height="35" viewBox="0 0 36 35" fill="none" xmlns="http://www.w3.org/2000/svg">
<path fill-rule="evenodd" clip-rule="evenodd" d="M17.625 0C27.2484 0 35.0615 7.81681 35.0615 17.4449C35.0615 27.073 27.2484 34.8898 17.625 34.8898C8.0015 34.8898 0.188446 27.073 0.188446 17.4449C0.188446 7.81681 8.0015 0 17.625 0ZM17.625 6.54184C14.6653 6.54184 14.2942 6.55437 13.1318 6.60746C11.9719 6.66041 11.1796 6.84474 10.4864 7.11425C9.76981 7.39289 9.16205 7.7657 8.5562 8.37185C7.95035 8.97799 7.57771 9.58604 7.29921 10.303C7.02983 10.9965 6.84565 11.7891 6.79266 12.9496C6.73967 14.1125 6.72714 14.4838 6.72714 17.4449C6.72714 20.406 6.73967 20.7773 6.79266 21.9402C6.84565 23.1007 7.02983 23.8933 7.29921 24.5868C7.57771 25.3038 7.95035 25.9118 8.5562 26.518C9.16205 27.1242 9.76981 27.497 10.4864 27.7756C11.1796 28.0451 11.9719 28.2294 13.1318 28.2823C14.2942 28.3354 14.6653 28.348 17.625 28.348C20.5846 28.348 20.9557 28.3354 22.1181 28.2823C23.2781 28.2294 24.0703 28.0451 24.7634 27.7756C25.48 27.497 26.0878 27.1242 26.6937 26.518C27.2996 25.9118 27.6722 25.3038 27.9507 24.5868C28.22 23.8933 28.4043 23.1007 28.4572 21.9402C28.5102 20.7773 28.5228 20.406 28.5228 17.4449C28.5228 14.4838 28.5102 14.1125 28.4572 12.9496C28.4043 11.7891 28.22 10.9965 27.9507 10.303C27.6722 9.58604 27.2996 8.97799 26.6937 8.37185C26.0878 7.7657 25.48 7.39289 24.7634 7.11425C24.0703 6.84474 23.2781 6.66041 22.1181 6.60746C20.9557 6.55437 20.5846 6.54184 17.625 6.54184ZM17.625 8.50636C20.5348 8.50636 20.8795 8.51747 22.0286 8.56994C23.0912 8.61846 23.6681 8.79604 24.0522 8.94535C24.5609 9.1431 24.9239 9.37943 25.3052 9.76096C25.6866 10.1424 25.9228 10.5057 26.1204 11.0146C26.2697 11.3988 26.4472 11.9761 26.4957 13.0391C26.5481 14.1888 26.5592 14.5336 26.5592 17.4449C26.5592 20.3561 26.5481 20.701 26.4957 21.8507C26.4472 22.9137 26.2697 23.491 26.1204 23.8752C25.9228 24.3841 25.6866 24.7474 25.3052 25.1288C24.9239 25.5104 24.5609 25.7467 24.0522 25.9444C23.6681 26.0937 23.0912 26.2714 22.0286 26.3198C20.8797 26.3723 20.535 26.3834 17.625 26.3834C14.7149 26.3834 14.3703 26.3723 13.2213 26.3198C12.1587 26.2714 11.5818 26.0937 11.1978 25.9444C10.689 25.7467 10.326 25.5104 9.94465 25.1288C9.5633 24.7474 9.32715 24.3841 9.1295 23.8752C8.98026 23.491 8.8027 22.9137 8.7542 21.8507C8.70176 20.701 8.69072 20.3561 8.69072 17.4449C8.69072 14.5336 8.70176 14.1888 8.7542 13.0391C8.8027 11.9761 8.98026 11.3988 9.1295 11.0146C9.32715 10.5057 9.5633 10.1424 9.94465 9.76096C10.326 9.37943 10.689 9.1431 11.1978 8.94535C11.5818 8.79604 12.1587 8.61846 13.2213 8.56994C14.3705 8.51747 14.7151 8.50636 17.625 8.50636ZM17.625 11.846C14.5343 11.846 12.0288 14.3527 12.0288 17.4449C12.0288 20.5371 14.5343 23.0438 17.625 23.0438C20.7157 23.0438 23.2211 20.5371 23.2211 17.4449C23.2211 14.3527 20.7157 11.846 17.625 11.846V11.846ZM17.625 21.0792C15.6187 21.0792 13.9924 19.4521 13.9924 17.4449C13.9924 15.4377 15.6187 13.8106 17.625 13.8106C19.6312 13.8106 21.2575 15.4377 21.2575 17.4449C21.2575 19.4521 19.6312 21.0792 17.625 21.0792V21.0792ZM24.75 11.6248C24.75 12.3474 24.1645 12.9331 23.4422 12.9331C22.72 12.9331 22.1345 12.3474 22.1345 11.6248C22.1345 10.9022 22.72 10.3165 23.4422 10.3165C24.1645 10.3165 24.75 10.9022 24.75 11.6248Z" fill="black"/>
</svg>
