<svg width="26" height="36" viewBox="0 0 26 36" fill="none" xmlns="http://www.w3.org/2000/svg">
<path d="M12.7393 35.8673L12.0569 35.0332C11.6019 34.4265 0 20.8531 0 12.7393C0 5.68721 5.76303 0 12.7393 0C19.7156 0 25.4787 5.76304 25.4787 12.7393C25.4787 20.8531 13.8768 34.5024 13.4218 35.0332L12.7393 35.8673ZM12.7393 1.74409C6.67298 1.74409 1.81991 6.67299 1.81991 12.6635C1.81991 19.0332 10.237 29.8768 12.7393 32.9858C15.2417 29.8768 23.6587 19.109 23.6587 12.6635C23.6587 6.67299 18.8057 1.74409 12.7393 1.74409Z" fill="black"/>
<path d="M12.739 17.5924C10.085 17.5924 7.88596 15.3934 7.88596 12.7394C7.88596 10.0853 10.085 7.88626 12.739 7.88626C15.3931 7.88626 17.5921 10.0853 17.5921 12.7394C17.5921 15.3934 15.3931 17.5924 12.739 17.5924ZM12.739 9.70618C11.0708 9.70618 9.70585 11.0711 9.70585 12.7394C9.70585 14.4076 11.0708 15.7725 12.739 15.7725C14.4073 15.7725 15.7722 14.4076 15.7722 12.7394C15.7722 11.0711 14.4073 9.70618 12.739 9.70618Z" fill="black"/>
</svg>
