<svg width="35" height="35" viewBox="0 0 35 35" fill="none" xmlns="http://www.w3.org/2000/svg">
<path d="M21.087 24.5485C21.087 24.5485 23.8707 22.9548 24.5994 22.5719C25.3261 22.1875 26.0789 22.0906 26.5361 22.3697C27.2284 22.7932 33.0419 26.6605 33.5314 27.0029C34.0209 27.3459 34.2567 28.3256 33.5836 29.2854C32.9133 30.2452 29.8209 34.0402 28.5106 33.9997C27.1981 33.9571 21.7415 33.8374 11.4517 23.5447C1.16397 13.2554 1.04228 7.79726 1.00034 6.4848C0.958408 5.17303 4.7534 2.07992 5.71314 1.40891C6.67427 0.738582 7.65532 0.990899 7.99632 1.46253C8.38407 1.99948 12.2066 7.79451 12.6273 8.45864C12.9154 8.9124 12.8095 9.66935 12.4252 10.3967C12.0429 11.1255 10.4493 13.9092 10.4493 13.9092C10.4493 13.9092 11.5727 15.8253 15.3718 19.6238C19.1716 23.423 21.087 24.5485 21.087 24.5485Z" stroke="black" stroke-width="2" stroke-miterlimit="10"/>
</svg>
