<svg width="35" height="35" viewBox="0 0 35 35" fill="none" xmlns="http://www.w3.org/2000/svg">
<path d="M15.1923 20.753L21.0428 17.2412L15.1923 13.7294V20.753Z" fill="black"/>
<path d="M17.5306 0C8.01371 0 0.297668 7.71868 0.297668 17.2412C0.297668 26.7638 8.01371 34.4824 17.5306 34.4824C27.0475 34.4824 34.7635 26.7627 34.7635 17.2412C34.7635 7.71976 27.0475 0 17.5306 0ZM26.8881 17.9966C26.8881 19.613 26.7007 21.2293 26.7007 21.2293C26.7007 21.2293 26.5176 22.6065 25.9575 23.211C25.2456 24.0062 24.4485 24.0106 24.0823 24.058C21.4629 24.2584 17.5306 24.2649 17.5306 24.2649C17.5306 24.2649 12.6645 24.2174 11.1673 24.0644C10.7505 23.9815 9.81671 24.0052 9.1037 23.211C8.54255 22.6054 8.36053 21.2293 8.36053 21.2293C8.36053 21.2293 8.17312 19.614 8.17312 17.9966V16.4815C8.17312 14.8652 8.36053 13.2499 8.36053 13.2499C8.36053 13.2499 8.54363 11.8727 9.1037 11.2661C9.81563 10.4697 10.6127 10.4654 10.9789 10.4202C13.5972 10.2176 17.5263 10.2176 17.5263 10.2176H17.5349C17.5349 10.2176 21.464 10.2176 24.0823 10.4202C24.4475 10.4654 25.2456 10.4697 25.9575 11.265C26.5187 11.8717 26.7007 13.2488 26.7007 13.2488C26.7007 13.2488 26.8881 14.8652 26.8881 16.4815V17.9966Z" fill="black"/>
</svg>
